<?xml version="1.0" encoding="UTF-8"?>
<svg xmlns="http://www.w3.org/2000/svg" width="752" height="145" viewBox="0 0 752 145" fill="none">
  <path d="M1.18512 29.7407C0.4896 30.1907 0.290601 31.1194 0.740645 31.8149C1.19069 32.5104 2.11935 32.7094 2.81488 32.2594L1.18512 29.7407ZM476 31L475.729 29.5248L475.51 29.565L475.313 29.6668L476 31ZM752 145L750.416 127.752L736.271 137.748L752 145ZM5.234 30.7407C5.94134 30.3095 6.16519 29.3865 5.73396 28.6792C5.30274 27.9718 4.37975 27.748 3.6724 28.1792L5.234 30.7407ZM8.81191 25.2112C8.08546 25.6094 7.81937 26.5211 8.21757 27.2475C8.61578 27.974 9.52749 28.2401 10.2539 27.8419L8.81191 25.2112ZM15.374 25.1661C16.1154 24.7964 16.4167 23.8957 16.0469 23.1543C15.6772 22.413 14.7765 22.1117 14.0352 22.4814L15.374 25.1661ZM19.3646 19.9395C18.6109 20.2834 18.2787 21.1732 18.6225 21.9268C18.9664 22.6805 19.8562 23.0127 20.6098 22.6689L19.3646 19.9395ZM25.9335 20.3424C26.6977 20.0226 27.0579 19.1438 26.7381 18.3796C26.4183 17.6154 25.5395 17.2552 24.7753 17.575L25.9335 20.3424ZM30.2525 15.3787C29.4791 15.6757 29.0929 16.5434 29.3899 17.3168C29.6869 18.0901 30.5546 18.4763 31.3279 18.1793L30.2525 15.3787ZM36.7825 16.1733C37.5639 15.8983 37.9744 15.0419 37.6994 14.2604C37.4244 13.479 36.568 13.0684 35.7865 13.3434L36.7825 16.1733ZM41.3713 11.4635C40.5827 11.7171 40.149 12.562 40.4026 13.3507C40.6563 14.1393 41.5012 14.573 42.2899 14.3194L41.3713 11.4635ZM47.845 12.6138C48.64 12.3812 49.0959 11.548 48.8633 10.7529C48.6306 9.95784 47.7974 9.50193 47.0023 9.73462L47.845 12.6138ZM52.676 8.15395C51.8752 8.36595 51.3978 9.18702 51.6098 9.98786C51.8218 10.7887 52.6429 11.2661 53.4437 11.0541L52.676 8.15395ZM59.0827 9.63827C59.8887 9.44679 60.3869 8.63818 60.1954 7.83218C60.0039 7.02619 59.1953 6.52802 58.3893 6.7195L59.0827 9.63827ZM64.1395 5.43011C63.3289 5.60115 62.8105 6.39692 62.9815 7.20749C63.1526 8.01807 63.9483 8.53651 64.7589 8.36547L64.1395 5.43011ZM70.4693 7.23523C71.2839 7.08459 71.8222 6.30209 71.6715 5.48748C71.5209 4.67286 70.7384 4.1346 69.9238 4.28525L70.4693 7.23523ZM75.7396 3.28488C74.9214 3.4151 74.3638 4.18388 74.494 5.00201C74.6242 5.82014 75.393 6.3778 76.2111 6.24758L75.7396 3.28488ZM81.9573 5.40615C82.7784 5.29632 83.355 4.54164 83.2451 3.72053C83.1353 2.89941 82.3806 2.3228 81.5595 2.43263L81.9573 5.40615ZM87.3983 1.7254C86.5747 1.81479 85.9795 2.5549 86.0689 3.37849C86.1583 4.20208 86.8984 4.79727 87.722 4.70788L87.3983 1.7254ZM93.5094 4.15252C94.3349 4.08366 94.9484 3.35859 94.8795 2.53303C94.8106 1.70747 94.0856 1.09404 93.26 1.1629L93.5094 4.15252ZM99.1419 0.746123C98.3149 0.794356 97.6836 1.50389 97.7318 2.33091C97.78 3.15793 98.4896 3.78927 99.3166 3.74103L99.1419 0.746123ZM105.136 3.47464C105.964 3.44712 106.613 2.75361 106.585 1.92564C106.558 1.09767 105.864 0.448776 105.036 0.476297L105.136 3.47464ZM110.911 0.354423C110.083 0.361255 109.417 1.03834 109.424 1.86674C109.43 2.69514 110.107 3.36115 110.936 3.35432L110.911 0.354423ZM116.747 3.37926C117.576 3.3932 118.258 2.73303 118.272 1.90472C118.286 1.07641 117.626 0.39363 116.798 0.379681L116.747 3.37926ZM122.693 0.553229C121.866 0.518422 121.166 1.16119 121.132 1.98888C121.097 2.81658 121.74 3.51577 122.567 3.55058L122.693 0.553229ZM128.377 3.86832C129.204 3.92399 129.919 3.29907 129.974 2.47251C130.03 1.64596 129.405 0.930773 128.579 0.875102L128.377 3.86832ZM134.438 1.34398C133.614 1.2675 132.883 1.87421 132.806 2.6991C132.73 3.52399 133.337 4.25469 134.161 4.33117L134.438 1.34398ZM139.946 4.94131C140.769 5.03862 141.515 4.45057 141.612 3.62788C141.709 2.80519 141.121 2.05938 140.299 1.96208L139.946 4.94131ZM146.155 2.73008C145.335 2.61196 144.574 3.18091 144.456 4.00087C144.338 4.82083 144.907 5.5813 145.727 5.69943L146.155 2.73008ZM151.454 6.59825C152.27 6.73699 153.045 6.18738 153.184 5.37065C153.323 4.55393 152.773 3.77937 151.956 3.64062L151.454 6.59825ZM157.75 4.70026C156.937 4.54095 156.149 5.07085 155.99 5.88381C155.83 6.69678 156.36 7.48496 157.173 7.64427L157.75 4.70026ZM162.883 8.83826C163.692 9.01805 164.493 8.50823 164.673 7.69955C164.852 6.89087 164.343 6.08955 163.534 5.90976L162.883 8.83826ZM169.247 7.25523C168.443 7.05528 167.63 7.54489 167.43 8.34883C167.23 9.15276 167.719 9.96657 168.523 10.1665L169.247 7.25523ZM174.149 11.6409C174.948 11.8609 175.774 11.3918 175.994 10.5931C176.214 9.7944 175.745 8.9686 174.946 8.74861L174.149 11.6409ZM180.617 10.3869C179.824 10.1471 178.987 10.5955 178.747 11.3885C178.507 12.1814 178.956 13.0187 179.749 13.2585L180.617 10.3869ZM185.277 15.005C186.063 15.2642 186.911 14.8365 187.171 14.0497C187.43 13.2629 187.002 12.4149 186.215 12.1556L185.277 15.005ZM191.795 14.0705C191.015 13.792 190.157 14.1987 189.878 14.9789C189.6 15.7592 190.006 16.6174 190.786 16.8959L191.795 14.0705ZM196.237 18.9165C197.01 19.2138 197.878 18.8281 198.175 18.0549C198.473 17.2816 198.087 16.4138 197.314 16.1164L196.237 18.9165ZM202.776 18.2929C202.01 17.977 201.134 18.3419 200.818 19.1077C200.502 19.8736 200.867 20.7505 201.633 21.0663L202.776 18.2929ZM207.005 23.3576C207.764 23.6917 208.649 23.3479 208.983 22.5898C209.317 21.8317 208.973 20.9464 208.215 20.6123L207.005 23.3576ZM213.55 23.0381C212.8 22.6864 211.907 23.0093 211.555 23.7594C211.203 24.5095 211.526 25.4026 212.276 25.7543L213.55 23.0381ZM217.527 28.2911C218.269 28.6601 219.169 28.358 219.538 27.6163C219.907 26.8746 219.605 25.9742 218.863 25.6052L217.527 28.2911ZM224.094 28.2828C223.361 27.897 222.454 28.1785 222.068 28.9116C221.682 29.6446 221.964 30.5517 222.697 30.9376L224.094 28.2828ZM227.917 33.7209C228.65 34.1058 229.557 33.8231 229.942 33.0895C230.327 32.3559 230.044 31.4492 229.311 31.0643L227.917 33.7209ZM234.52 33.7141C233.777 33.3479 232.878 33.6534 232.512 34.3965C232.145 35.1396 232.451 36.0388 233.194 36.4051L234.52 33.7141ZM238.551 38.9615C239.303 39.3088 240.194 38.9806 240.542 38.2285C240.889 37.4764 240.561 36.5851 239.809 36.2378L238.551 38.9615ZM245.136 38.6169C244.375 38.2887 243.493 38.6391 243.164 39.3997C242.836 40.1603 243.186 41.043 243.947 41.3713L245.136 38.6169ZM249.432 43.6573C250.201 43.9663 251.075 43.5938 251.384 42.8251C251.693 42.0565 251.32 41.1829 250.551 40.8739L249.432 43.6573ZM256.002 42.9865C255.226 42.6967 254.362 43.091 254.072 43.8671C253.782 44.6432 254.176 45.5072 254.952 45.797L256.002 42.9865ZM260.531 47.801C261.314 48.0714 262.168 47.6558 262.438 46.8728C262.709 46.0897 262.293 45.2357 261.51 44.9653L260.531 47.801ZM267.068 46.8083C266.279 46.5572 265.435 46.9937 265.184 47.7832C264.933 48.5727 265.37 49.4162 266.159 49.6672L267.068 46.8083ZM271.815 51.39C272.611 51.6217 273.443 51.1648 273.675 50.3695C273.907 49.5741 273.45 48.7415 272.654 48.5098L271.815 51.39ZM278.306 50.0822C277.505 49.8698 276.684 50.3467 276.471 51.1474C276.259 51.9481 276.736 52.7695 277.536 52.9819L278.306 50.0822ZM283.277 54.4315C284.082 54.6247 284.892 54.1283 285.085 53.3227C285.279 52.5172 284.782 51.7075 283.977 51.5142L283.277 54.4315ZM289.684 52.812C288.874 52.6379 288.076 53.1532 287.902 53.9631C287.727 54.773 288.243 55.5708 289.053 55.745L289.684 52.812ZM294.864 56.9239C295.678 57.0792 296.463 56.5454 296.619 55.7316C296.774 54.9179 296.24 54.1324 295.426 53.9771L294.864 56.9239ZM301.18 55.0066C300.363 54.87 299.59 55.4217 299.454 56.2388C299.317 57.0559 299.869 57.829 300.686 57.9655L301.18 55.0066ZM306.546 58.8765C307.366 58.9945 308.126 58.4254 308.244 57.6054C308.362 56.7854 307.793 56.0251 306.973 55.9071L306.546 58.8765ZM312.779 56.6763C311.957 56.5767 311.209 57.1626 311.11 57.985C311.01 58.8074 311.596 59.5549 312.418 59.6545L312.779 56.6763ZM318.295 60.3011C319.119 60.3827 319.853 59.7806 319.935 58.9562C320.017 58.1318 319.414 57.3973 318.59 57.3157L318.295 60.3011ZM324.436 57.8302C323.61 57.7665 322.888 58.3844 322.825 59.2104C322.761 60.0364 323.379 60.7576 324.205 60.8213L324.436 57.8302ZM330.111 61.2135C330.939 61.2596 331.647 60.6264 331.693 59.7993C331.739 58.9721 331.106 58.2642 330.278 58.2181L330.111 61.2135ZM336.123 58.4823C335.295 58.4536 334.601 59.1014 334.572 59.9293C334.543 60.7573 335.191 61.4518 336.019 61.4805L336.123 58.4823ZM341.948 61.625C342.776 61.6367 343.457 60.9746 343.469 60.1462C343.48 59.3179 342.818 58.637 341.99 58.6253L341.948 61.625ZM347.846 58.648C347.018 58.6532 346.35 59.3289 346.355 60.1573C346.361 60.9857 347.036 61.6531 347.865 61.6479L347.846 58.648ZM353.776 61.5516C354.605 61.5298 355.258 60.8409 355.236 60.0127C355.215 59.1846 354.526 58.5309 353.698 58.5526L353.776 61.5516ZM359.564 58.3403C358.737 58.3784 358.097 59.0802 358.135 59.9078C358.173 60.7353 358.875 61.3753 359.702 61.3371L359.564 58.3403ZM365.61 61.0072C366.437 60.953 367.063 60.2389 367.009 59.4123C366.954 58.5856 366.24 57.9594 365.414 58.0136L365.61 61.0072ZM371.246 57.5748C370.42 57.6449 369.808 58.3708 369.878 59.1963C369.948 60.0218 370.674 60.6341 371.499 60.5641L371.246 57.5748ZM377.405 60.0061C378.229 59.9203 378.827 59.1828 378.742 58.3589C378.656 57.5349 377.918 56.9364 377.094 57.0222L377.405 60.0061ZM382.92 56.3604C382.098 56.4616 381.514 57.2102 381.615 58.0324C381.716 58.8546 382.465 59.4391 383.287 59.3379L382.92 56.3604ZM389.142 58.5618C389.962 58.4453 390.532 57.6859 390.416 56.8658C390.3 56.0456 389.54 55.4751 388.72 55.5916L389.142 58.5618ZM394.52 54.7131C393.702 54.8447 393.146 55.6144 393.277 56.4323C393.409 57.2502 394.179 57.8066 394.996 57.675L394.52 54.7131ZM400.839 56.6794C401.654 56.5327 402.197 55.7529 402.05 54.9375C401.903 54.1222 401.123 53.5801 400.308 53.7268L400.839 56.6794ZM406.066 52.6364C405.254 52.798 404.726 53.5876 404.888 54.4001C405.049 55.2127 405.839 55.7403 406.651 55.5788L406.066 52.6364ZM412.431 54.3743C413.241 54.1979 413.754 53.3987 413.577 52.5893C413.401 51.7799 412.602 51.2667 411.792 51.4431L412.431 54.3743ZM417.511 50.1416C416.705 50.3329 416.206 51.1414 416.398 51.9474C416.589 52.7535 417.397 53.2518 418.203 53.0605L417.511 50.1416ZM423.96 51.6378C424.762 51.4316 425.246 50.614 425.039 49.8116C424.833 49.0093 424.016 48.526 423.213 48.7323L423.96 51.6378ZM428.881 47.2187C428.082 47.44 427.615 48.2665 427.836 49.0649C428.057 49.8632 428.884 50.331 429.682 50.1097L428.881 47.2187ZM435.368 48.475C436.162 48.2385 436.614 47.4031 436.378 46.6091C436.141 45.8152 435.306 45.3633 434.512 45.5999L435.368 48.475ZM440.105 43.8738C439.316 44.1259 438.881 44.97 439.133 45.7591C439.385 46.5483 440.229 46.9836 441.018 46.7316L440.105 43.8738ZM446.631 44.876C447.415 44.608 447.833 43.7552 447.565 42.9714C447.297 42.1875 446.444 41.7694 445.66 42.0374L446.631 44.876ZM451.175 40.086C450.397 40.3707 449.998 41.2322 450.282 42.0102C450.567 42.7881 451.429 43.188 452.207 42.9033L451.175 40.086ZM457.744 40.8061C458.515 40.5038 458.895 39.6334 458.593 38.8621C458.291 38.0908 457.42 37.7107 456.649 38.013L457.744 40.8061ZM462.076 35.8093C461.313 36.1305 460.954 37.01 461.275 37.7736C461.597 38.5372 462.476 38.8958 463.24 38.5745L462.076 35.8093ZM468.688 36.1953C469.442 35.8531 469.776 34.9641 469.434 34.2097C469.092 33.4552 468.203 33.1211 467.448 33.4633L468.688 36.1953ZM472.745 30.9606C472.002 31.3268 471.697 32.2261 472.063 32.9692C472.429 33.7123 473.328 34.0178 474.071 33.6516L472.745 30.9606ZM479.173 31.9686C479.99 31.8332 480.543 31.0609 480.407 30.2436C480.272 29.4263 479.499 28.8735 478.682 29.0089L479.173 31.9686ZM484.715 28.1108C483.893 28.22 483.316 28.9742 483.425 29.7954C483.535 30.6166 484.289 31.1938 485.11 31.0847L484.715 28.1108ZM491.076 30.3791C491.9 30.2933 492.499 29.5557 492.413 28.7318C492.327 27.9078 491.589 27.3094 490.765 27.3953L491.076 30.3791ZM496.832 26.8434C496.006 26.9079 495.389 27.6298 495.453 28.4557C495.518 29.2816 496.24 29.8988 497.065 29.8343L496.832 26.8434ZM503.075 29.4378C503.902 29.393 504.537 28.6862 504.492 27.859C504.447 27.0317 503.74 26.3974 502.913 26.4421L503.075 29.4378ZM509.01 26.1824C508.182 26.2083 507.532 26.9006 507.558 27.7286C507.584 28.5567 508.276 29.2069 509.104 29.1809L509.01 26.1824ZM515.115 29.058C515.943 29.0499 516.608 28.3719 516.6 27.5435C516.592 26.7151 515.914 26.0501 515.085 26.0581L515.115 29.058ZM521.147 26.0627C520.319 26.0535 519.64 26.7175 519.631 27.5459C519.622 28.3743 520.286 29.0533 521.114 29.0625L521.147 26.0627ZM527.13 29.1908C527.958 29.2169 528.651 28.5668 528.677 27.7387C528.703 26.9107 528.053 26.2184 527.225 26.1923L527.13 29.1908ZM533.316 26.4452C532.489 26.4025 531.784 27.0387 531.741 27.866C531.699 28.6934 532.335 29.3986 533.162 29.4412L533.316 26.4452ZM539.168 29.8098C539.994 29.8686 540.712 29.2465 540.771 28.4201C540.83 27.5938 540.208 26.8762 539.381 26.8174L539.168 29.8098ZM545.425 27.3068C544.6 27.232 543.87 27.8401 543.795 28.6651C543.721 29.4902 544.329 30.2197 545.154 30.2945L545.425 27.3068ZM551.153 30.8975C551.976 30.9884 552.717 30.3945 552.808 29.571C552.899 28.7476 552.305 28.0064 551.482 27.9156L551.153 30.8975ZM557.526 28.6414C556.705 28.5347 555.952 29.1142 555.846 29.9357C555.739 30.7573 556.319 31.5097 557.14 31.6164L557.526 28.6414ZM563.085 32.4464C563.904 32.5688 564.668 32.0039 564.79 31.1845C564.913 30.3652 564.348 29.6018 563.528 29.4793L563.085 32.4464ZM569.539 30.4368C568.722 30.2986 567.948 30.8487 567.81 31.6655C567.672 32.4824 568.222 33.2566 569.039 33.3948L569.539 30.4368ZM574.969 34.4572C575.783 34.6112 576.567 34.0761 576.721 33.2621C576.875 32.4482 576.34 31.6635 575.526 31.5095L574.969 34.4572ZM581.475 32.6946C580.664 32.5248 579.869 33.0446 579.699 33.8554C579.53 34.6663 580.049 35.4612 580.86 35.6309L581.475 32.6946ZM586.754 36.925C587.561 37.1106 588.366 36.6065 588.552 35.7992C588.737 34.9918 588.233 34.1868 587.426 34.0012L586.754 36.925ZM593.327 35.4191C592.524 35.2176 591.709 35.7057 591.508 36.5093C591.306 37.3128 591.794 38.1276 592.598 38.329L593.327 35.4191ZM598.419 39.8499C599.218 40.0672 600.043 39.5954 600.26 38.796C600.477 37.9966 600.006 37.1723 599.206 36.955L598.419 39.8499ZM605.07 38.6129C604.276 38.3795 603.442 38.8347 603.209 39.6295C602.975 40.4244 603.43 41.258 604.225 41.4913L605.07 38.6129ZM609.966 43.24C610.756 43.4894 611.599 43.0511 611.848 42.2611C612.098 41.4711 611.659 40.6285 610.869 40.3792L609.966 43.24ZM616.658 42.2718C615.874 42.0063 615.022 42.4272 614.757 43.2119C614.491 43.9967 614.912 44.848 615.697 45.1135L616.658 42.2718ZM621.37 47.0985C622.149 47.3801 623.009 46.9768 623.291 46.1978C623.573 45.4187 623.169 44.5588 622.39 44.2771L621.37 47.0985ZM628.086 46.4033C627.312 46.1054 626.444 46.4907 626.147 47.2637C625.849 48.0368 626.234 48.9049 627.007 49.2027L628.086 46.4033ZM632.606 51.4279C633.373 51.742 634.249 51.3752 634.563 50.6086C634.877 49.842 634.51 48.966 633.744 48.6519L632.606 51.4279ZM639.335 51.0124C638.575 50.6821 637.692 51.0302 637.361 51.7899C637.031 52.5497 637.379 53.4333 638.139 53.7636L639.335 51.0124ZM643.646 56.229C644.399 56.5757 645.29 56.2467 645.636 55.4943C645.983 54.7419 645.654 53.8509 644.902 53.5043L643.646 56.229ZM650.381 56.1005C649.636 55.7376 648.738 56.0472 648.375 56.792C648.012 57.5367 648.322 58.4346 649.067 58.7974L650.381 56.1005ZM654.454 61.4957C655.191 61.8749 656.095 61.5851 656.474 60.8485C656.853 60.1119 656.564 59.2074 655.827 58.8283L654.454 61.4957ZM661.196 61.6671C660.468 61.2718 659.558 61.5416 659.162 62.2696C658.767 62.9977 659.037 63.9083 659.765 64.3036L661.196 61.6671ZM665.021 67.2336C665.74 67.645 666.656 67.3956 667.068 66.6766C667.479 65.9575 667.23 65.0411 666.511 64.6297L665.021 67.2336ZM671.756 67.7096C671.047 67.2821 670.125 67.5108 669.697 68.2205C669.27 68.9301 669.498 69.8519 670.208 70.2793L671.756 67.7096ZM675.321 73.4386C676.021 73.882 676.948 73.6742 677.391 72.9744C677.834 72.2746 677.627 71.3479 676.927 70.9045L675.321 73.4386ZM682.034 74.2226C681.344 73.7634 680.413 73.95 679.954 74.6395C679.495 75.329 679.681 76.2602 680.371 76.7195L682.034 74.2226ZM685.33 80.1043C686.008 80.5791 686.944 80.4137 687.418 79.7349C687.893 79.0561 687.728 78.1208 687.049 77.646L685.33 80.1043ZM692.005 81.1978C691.337 80.7075 690.398 80.8513 689.908 81.519C689.417 82.1868 689.561 83.1256 690.229 83.6159L692.005 81.1978ZM695.022 87.2211C695.679 87.7267 696.62 87.6044 697.126 86.9481C697.631 86.2918 697.509 85.35 696.853 84.8444L695.022 87.2211ZM701.644 88.6238C700.999 88.1032 700.055 88.2036 699.534 88.8481C699.014 89.4925 699.114 90.4369 699.759 90.9575L701.644 88.6238ZM704.377 94.7767C705.009 95.312 705.956 95.2334 706.491 94.6011C707.026 93.9688 706.948 93.0223 706.315 92.487L704.377 94.7767ZM710.93 96.4859C710.31 95.9362 709.362 95.9929 708.812 96.6126C708.262 97.2323 708.319 98.1804 708.939 98.7301L710.93 96.4859ZM713.373 102.756C713.98 103.32 714.929 103.285 715.493 102.678C716.057 102.071 716.022 101.122 715.415 100.558L713.373 102.756ZM719.842 104.766C719.248 104.189 718.298 104.202 717.721 104.796C717.143 105.389 717.156 106.339 717.75 106.917L719.842 104.766ZM721.993 111.14C722.574 111.732 723.523 111.74 724.114 111.16C724.705 110.579 724.714 109.63 724.134 109.038L721.993 111.14ZM728.363 113.445C727.796 112.841 726.847 112.81 726.243 113.377C725.638 113.944 725.608 114.893 726.175 115.497L728.363 113.445ZM730.222 119.91C730.775 120.527 731.723 120.579 732.34 120.026C732.957 119.473 733.009 118.525 732.456 117.908L730.222 119.91ZM736.479 122.499C735.94 121.869 734.993 121.796 734.364 122.335C733.735 122.874 733.662 123.821 734.201 124.45L736.479 122.499ZM738.048 129.044C738.573 129.685 739.518 129.779 740.159 129.254C740.8 128.729 740.894 127.784 740.369 127.143L738.048 129.044ZM744.18 131.903C743.669 131.251 742.726 131.136 742.074 131.647C741.421 132.157 741.306 133.1 741.817 133.752L744.18 131.903ZM745.463 138.518C745.959 139.181 746.899 139.317 747.563 138.821C748.226 138.324 748.362 137.384 747.865 136.721L745.463 138.518ZM751.458 141.634C750.976 140.96 750.04 140.805 749.366 141.286C748.692 141.768 748.536 142.705 749.018 143.379L751.458 141.634ZM2.81488 32.2594C3.58991 31.7579 4.39649 31.2513 5.234 30.7407L3.6724 28.1792C2.81279 28.7032 1.98346 29.2241 1.18512 29.7407L2.81488 32.2594ZM10.2539 27.8419C11.8759 26.9528 13.5836 26.059 15.374 25.1661L14.0352 22.4814C12.2111 23.3911 10.4689 24.3029 8.81191 25.2112L10.2539 27.8419ZM20.6098 22.6689C22.3234 21.887 24.0987 21.1103 25.9335 20.3424L24.7753 17.575C22.9116 18.3549 21.1073 19.1444 19.3646 19.9395L20.6098 22.6689ZM31.3279 18.1793C33.0992 17.4991 34.918 16.8295 36.7825 16.1733L35.7865 13.3434C33.8955 14.009 32.0502 14.6884 30.2525 15.3787L31.3279 18.1793ZM42.2899 14.3194C44.1039 13.7359 45.9561 13.1666 47.845 12.6138L47.0023 9.73462C45.088 10.2949 43.2105 10.8719 41.3713 11.4635L42.2899 14.3194ZM53.4437 11.0541C55.2923 10.5647 57.1723 10.0921 59.0827 9.63827L58.3893 6.7195C56.4539 7.17929 54.5491 7.65811 52.676 8.15395L53.4437 11.0541ZM64.7589 8.36547C66.6362 7.96933 68.54 7.59201 70.4693 7.23523L69.9238 4.28525C67.9695 4.64663 66.0411 5.02883 64.1395 5.43011L64.7589 8.36547ZM76.2111 6.24758C78.1043 5.94625 80.02 5.66528 81.9573 5.40615L81.5595 2.43263C79.5974 2.69508 77.6571 2.97967 75.7396 3.28488L76.2111 6.24758ZM87.722 4.70788C89.6321 4.50057 91.5614 4.315 93.5094 4.15252L93.26 1.1629C91.287 1.32747 89.3329 1.51542 87.3983 1.7254L87.722 4.70788ZM99.3166 3.74103C101.24 3.62887 103.18 3.53966 105.136 3.47464L105.036 0.476297C103.055 0.542153 101.09 0.632512 99.1419 0.746123L99.3166 3.74103ZM110.936 3.35432C112.859 3.33846 114.796 3.3464 116.747 3.37926L116.798 0.379681C114.821 0.346401 112.859 0.33836 110.911 0.354423L110.936 3.35432ZM122.567 3.55058C124.492 3.63151 126.429 3.73708 128.377 3.86832L128.579 0.875102C126.605 0.742151 124.643 0.635208 122.693 0.553229L122.567 3.55058ZM134.161 4.33117C136.079 4.50897 138.008 4.71204 139.946 4.94131L140.299 1.96208C138.335 1.72981 136.381 1.5241 134.438 1.34398L134.161 4.33117ZM145.727 5.69943C147.627 5.97317 149.536 6.27249 151.454 6.59825L151.956 3.64062C150.014 3.31062 148.08 3.0074 146.155 2.73008L145.727 5.69943ZM157.173 7.64427C159.069 8.01576 160.972 8.41348 162.883 8.83826L163.534 5.90976C161.598 5.47947 159.67 5.07658 157.75 4.70026L157.173 7.64427ZM168.523 10.1665C170.392 10.6314 172.268 11.1227 174.149 11.6409L174.946 8.74861C173.04 8.2237 171.141 7.72616 169.247 7.25523L168.523 10.1665ZM179.749 13.2585C181.586 13.8142 183.429 14.3961 185.277 15.005L186.215 12.1556C184.344 11.5391 182.478 10.9498 180.617 10.3869L179.749 13.2585ZM190.786 16.8959C192.599 17.5429 194.416 18.2163 196.237 18.9165L197.314 16.1164C195.47 15.4074 193.631 14.7257 191.795 14.0705L190.786 16.8959ZM201.633 21.0663C203.42 21.8035 205.211 22.5671 207.005 23.3576L208.215 20.6123C206.399 19.8122 204.586 19.0392 202.776 18.2929L201.633 21.0663ZM212.276 25.7543C214.024 26.5738 215.774 27.4192 217.527 28.2911L218.863 25.6052C217.09 24.7229 215.319 23.8674 213.55 23.0381L212.276 25.7543ZM222.697 30.9376C223.56 31.3916 224.423 31.8522 225.286 32.3194L226.714 29.6807C225.84 29.2081 224.967 28.7422 224.094 28.2828L222.697 30.9376ZM225.286 32.3194C226.162 32.7932 227.039 33.2603 227.917 33.7209L229.311 31.0643C228.444 30.6097 227.578 30.1485 226.714 29.6807L225.286 32.3194ZM233.194 36.4051C234.976 37.2836 236.762 38.1355 238.551 38.9615L239.809 36.2378C238.043 35.4225 236.28 34.5814 234.52 33.7141L233.194 36.4051ZM243.947 41.3713C245.773 42.1595 247.602 42.9213 249.432 43.6573L250.551 40.8739C248.744 40.1472 246.939 39.3951 245.136 38.6169L243.947 41.3713ZM254.952 45.797C256.811 46.4907 258.67 47.1585 260.531 47.801L261.51 44.9653C259.673 44.3309 257.837 43.6715 256.002 42.9865L254.952 45.797ZM266.159 49.6672C268.044 50.2666 269.93 50.8407 271.815 51.39L272.654 48.5098C270.792 47.9672 268.93 47.4002 267.068 46.8083L266.159 49.6672ZM277.536 52.9819C279.451 53.4897 281.364 53.9727 283.277 54.4315L283.977 51.5142C282.087 51.061 280.197 50.5838 278.306 50.0822L277.536 52.9819ZM289.053 55.745C290.992 56.162 292.929 56.5548 294.864 56.9239L295.426 53.9771C293.514 53.6123 291.6 53.2242 289.684 52.812L289.053 55.745ZM300.686 57.9655C302.643 58.2925 304.596 58.5959 306.546 58.8765L306.973 55.9071C305.046 55.6297 303.115 55.3298 301.18 55.0066L300.686 57.9655ZM312.418 59.6545C314.382 59.8925 316.341 60.1077 318.295 60.3011L318.59 57.3157C316.658 57.1245 314.721 56.9116 312.779 56.6763L312.418 59.6545ZM324.205 60.8213C326.18 60.9736 328.149 61.1041 330.111 61.2135L330.278 58.2181C328.337 58.1099 326.389 57.9808 324.436 57.8302L324.205 60.8213ZM336.019 61.4805C338.003 61.5495 339.979 61.5974 341.948 61.625L341.99 58.6253C340.042 58.5979 338.086 58.5505 336.123 58.4823L336.019 61.4805ZM347.865 61.6479C349.845 61.6355 351.815 61.6031 353.776 61.5516L353.698 58.5526C351.756 58.6036 349.806 58.6357 347.846 58.648L347.865 61.6479ZM359.702 61.3371C361.683 61.2459 363.652 61.1356 365.61 61.0072L365.414 58.0136C363.475 58.1408 361.525 58.25 359.564 58.3403L359.702 61.3371ZM371.499 60.5641C373.481 60.3958 375.45 60.2095 377.405 60.0061L377.094 57.0222C375.158 57.2237 373.209 57.4082 371.246 57.5748L371.499 60.5641ZM383.287 59.3379C385.254 59.0957 387.206 58.8366 389.142 58.5618L388.72 55.5916C386.803 55.8638 384.869 56.1205 382.92 56.3604L383.287 59.3379ZM394.996 57.675C396.963 57.3585 398.911 57.0262 400.839 56.6794L400.308 53.7268C398.398 54.0704 396.468 54.3995 394.52 54.7131L394.996 57.675ZM406.651 55.5788C408.6 55.1912 410.527 54.7893 412.431 54.3743L411.792 51.4431C409.906 51.8543 407.997 52.2524 406.066 52.6364L406.651 55.5788ZM418.203 53.0605C420.149 52.5987 422.069 52.124 423.96 51.6378L423.213 48.7323C421.34 49.2139 419.438 49.6841 417.511 50.1416L418.203 53.0605ZM429.682 50.1097C431.61 49.5753 433.506 49.0298 435.368 48.475L434.512 45.5999C432.668 46.1492 430.79 46.6894 428.881 47.2187L429.682 50.1097ZM441.018 46.7316C442.93 46.121 444.801 45.5018 446.631 44.876L445.66 42.0374C443.85 42.6566 441.997 43.2695 440.105 43.8738L441.018 46.7316ZM452.207 42.9033C454.105 42.2087 455.951 41.5087 457.744 40.8061L456.649 38.013C454.878 38.7072 453.052 39.3991 451.175 40.086L452.207 42.9033ZM463.24 38.5745C465.128 37.7801 466.945 36.9858 468.688 36.1953L467.448 33.4633C465.732 34.242 463.94 35.0252 462.076 35.8093L463.24 38.5745ZM474.071 33.6516C474.969 33.2094 475.841 32.7697 476.687 32.3333L475.313 29.6668C474.483 30.0947 473.627 30.5263 472.745 30.9606L474.071 33.6516ZM476.271 32.4753C477.217 32.3014 478.184 32.1323 479.173 31.9686L478.682 29.0089C477.677 29.1755 476.692 29.3476 475.729 29.5248L476.271 32.4753ZM485.11 31.0847C487.036 30.8287 489.026 30.5927 491.076 30.3791L490.765 27.3953C488.688 27.6117 486.669 27.851 484.715 28.1108L485.11 31.0847ZM497.065 29.8343C499.023 29.6813 501.027 29.5485 503.075 29.4378L502.913 26.4421C500.841 26.5542 498.813 26.6885 496.832 26.8434L497.065 29.8343ZM509.104 29.1809C511.073 29.1192 513.077 29.0778 515.115 29.058L515.085 26.0581C513.026 26.0781 511 26.12 509.01 26.1824L509.104 29.1809ZM521.114 29.0625C523.092 29.0845 525.098 29.1269 527.13 29.1908L527.225 26.1923C525.172 26.1277 523.146 26.0849 521.147 26.0627L521.114 29.0625ZM533.162 29.4412C535.142 29.5432 537.145 29.6657 539.168 29.8098L539.381 26.8174C537.338 26.6719 535.316 26.5482 533.316 26.4452L533.162 29.4412ZM545.154 30.2945C547.136 30.4744 549.136 30.6751 551.153 30.8975L551.482 27.9156C549.446 27.6911 547.426 27.4884 545.425 27.3068L545.154 30.2945ZM557.14 31.6164C559.108 31.872 561.09 32.1484 563.085 32.4464L563.528 29.4793C561.514 29.1784 559.513 28.8994 557.526 28.6414L557.14 31.6164ZM569.039 33.3948C571.005 33.7274 572.982 34.0813 574.969 34.4572L575.526 31.5095C573.52 31.13 571.524 30.7727 569.539 30.4368L569.039 33.3948ZM580.86 35.6309C582.817 36.0405 584.781 36.4716 586.754 36.925L587.426 34.0012C585.434 33.5434 583.45 33.1081 581.475 32.6946L580.86 35.6309ZM592.598 38.329C594.532 38.814 596.473 39.3208 598.419 39.8499L599.206 36.955C597.241 36.4206 595.281 35.9088 593.327 35.4191L592.598 38.329ZM604.225 41.4913C606.135 42.0521 608.049 42.6348 609.966 43.24L610.869 40.3792C608.933 39.7678 607 39.1792 605.07 38.6129L604.225 41.4913ZM615.697 45.1135C617.586 45.7527 619.477 46.4142 621.37 47.0985L622.39 44.2771C620.478 43.5858 618.567 42.9175 616.658 42.2718L615.697 45.1135ZM627.007 49.2027C628.873 49.9216 630.74 50.6632 632.606 51.4279L633.744 48.6519C631.857 47.8791 629.971 47.1297 628.086 46.4033L627.007 49.2027ZM638.139 53.7636C639.976 54.5623 641.812 55.3839 643.646 56.229L644.902 53.5043C643.047 52.65 641.192 51.8196 639.335 51.0124L638.139 53.7636ZM649.067 58.7974C650.865 59.6736 652.661 60.5729 654.454 61.4957L655.827 58.8283C654.014 57.8953 652.198 56.9862 650.381 56.1005L649.067 58.7974ZM659.765 64.3036C661.521 65.2568 663.273 66.2334 665.021 67.2336L666.511 64.6297C664.743 63.6183 662.972 62.6309 661.196 61.6671L659.765 64.3036ZM670.208 70.2793C671.917 71.309 673.622 72.3619 675.321 73.4386L676.927 70.9045C675.208 69.8156 673.484 68.7508 671.756 67.7096L670.208 70.2793ZM680.371 76.7195C682.03 77.8243 683.683 78.9524 685.33 80.1043L687.049 77.646C685.383 76.4809 683.712 75.3399 682.034 74.2226L680.371 76.7195ZM690.229 83.6159C691.833 84.7942 693.432 85.9958 695.022 87.2211L696.853 84.8444C695.244 83.605 693.628 82.3896 692.005 81.1978L690.229 83.6159ZM699.759 90.9575C701.306 92.2072 702.845 93.4802 704.377 94.7767L706.315 92.487C704.766 91.1756 703.209 89.8879 701.644 88.6238L699.759 90.9575ZM708.939 98.7301C710.425 100.049 711.904 101.391 713.373 102.756L715.415 100.558C713.929 99.177 712.433 97.8198 710.93 96.4859L708.939 98.7301ZM717.75 106.917C719.173 108.302 720.588 109.709 721.993 111.14L724.134 109.038C722.712 107.591 721.281 106.167 719.842 104.766L717.75 106.917ZM726.175 115.497C727.533 116.946 728.883 118.417 730.222 119.91L732.456 117.908C731.101 116.397 729.737 114.91 728.363 113.445L726.175 115.497ZM734.201 124.45C735.493 125.959 736.776 127.49 738.048 129.044L740.369 127.143C739.083 125.572 737.786 124.024 736.479 122.499L734.201 124.45ZM741.817 133.752C743.043 135.319 744.258 136.907 745.463 138.518L747.865 136.721C746.648 135.093 745.419 133.487 744.18 131.903L741.817 133.752Z" fill="white"></path>
</svg>
